<?xml version="1.0" encoding="utf-8"?>
<!-- Generator: Adobe Illustrator 21.0.2, SVG Export Plug-In . SVG Version: 6.00 Build 0)  -->
<svg version="1.1" id="Layer_1" xmlns="http://www.w3.org/2000/svg" xmlns:xlink="http://www.w3.org/1999/xlink" x="0px" y="0px"
	 viewBox="0 0 682 682" style="enable-background:new 0 0 682 682;" xml:space="preserve">
<style type="text/css">
	.st0{fill:#2B2B2B;}
</style>
<path class="st0" d="M566,112.9c-60.3-54.6-140.3-84.6-225.4-84.6s-165.1,30.1-225.4,84.6C54.5,167.9,21,241.2,21,319.4
	c0,58.5,18.8,114.6,54.6,162.8L48.1,653.9l173.7-64.2c37.8,13.8,77.7,20.8,118.8,20.8c85,0,165.1-30.1,225.4-84.6
	c60.8-55,94.3-128.4,94.3-206.5S626.9,167.9,566,112.9z M368.7,403L298,347.7l-169,66.9l193.4-192.4l71.5,57.1l154.7-60L368.7,403z"
	/>
</svg>
